# AST/ASF file generated using VICON BodyLanguage
# -----------------------------------------------
:version 1.10
:name VICON
:units
  mass 1.0
  length 0.45
  angle deg
:documentation
   .ast/.asf automatically generated from VICON data using
   VICON BodyBuilder and BodyLanguage model FoxedUp or BRILLIANT.MOD
:root
   order TX TY TZ RX RY RZ
   axis XYZ
   position 0 0 0  
   orientation 0 0 0 
:bonedata
  begin
     id 1 
     name lhipjoint
     direction 0.528046 -0.759594 0.379717 
     length 2.39752 
     axis 0 0 0  XYZ
  end
  begin
     id 2 
     name lfemur
     direction 0.34202 -0.939693 0  
     length 7.31175  
     axis 0 0 20  XYZ
    dof rx ry rz
    limits (-160.0 20.0)
           (-70.0 70.0)
           (-60.0 70.0)
  end
  begin
     id 3 
     name ltibia
     direction 0.34202 -0.939693 0   
     length 7.52482   
     axis 0 0 20   XYZ
    dof rx
    limits (-10.0 170.0)
  end
  begin
     id 4 
     name lfoot
     direction 0.0675379 -0.185559 0.980309   
     length 2.00961   
     axis -90 7.62852e-016 20   XYZ
    dof rx rz
    limits (-45.0 90.0)
           (-70.0 20.0)
  end
  begin
     id 5 
     name ltoes
     direction 1.5352e-011 -4.22286e-011 1   
     length 1.01383   
     axis -90 7.62852e-016 20   XYZ
    dof rx
    limits (-90.0 20.0)
  end
  begin
     id 6 
     name rhipjoint
     direction -0.510274 -0.769251 0.384544   
     length 2.36742  
     axis 0 0 0  XYZ 
  end
  begin
     id 7 
     name rfemur
     direction -0.34202 -0.939693 0   
     length 7.45325   
     axis 0 0 -20   XYZ
    dof rx ry rz
    limits (-160.0 20.0)
           (-70.0 70.0)
           (-70.0 60.0)
  end
  begin
     id 8 
     name rtibia
     direction -0.34202 -0.939693 0   
     length 7.49587   
     axis 0 0 -20   XYZ
    dof rx
    limits (-10.0 170.0)
 end
 begin
     id 9 
     name rfoot
     direction -0.106475 -0.292536 0.950308   
     length 2.20898  
     axis -90 -7.62852e-016 -20   XYZ
    dof rx rz
    limits (-45.0 90.0)
           (-20.0 70.0)
  end
  begin
     id 10 
     name rtoes
     direction -1.53597e-011 -4.22023e-011 1   
     length 1.10065   
     axis -90 -7.62852e-016 -20   XYZ
    dof rx
    limits (-90.0 20.0)
  end
  begin
     id 11 
     name lowerback
     direction 0.0260024 0.998026 -0.0571652   
     length 2.11214   
     axis 0 0 0   XYZ
    dof rx ry rz
    limits (-20.0 45.0)
           (-30.0 30.0)
           (-30.0 30.0)
  end
  begin
     id 12 
     name upperback
     direction 0.0216202 0.999542 -0.0211766   
     length 2.11689   
     axis 0 0 0   XYZ
    dof rx ry rz
    limits (-20.0 45.0)
           (-30.0 30.0)
           (-30.0 30.0)
  end
  begin
     id 13 
     name thorax
     direction 0.00883312 0.999944 0.00589057   
     length 2.11821   
     axis 0 0 0   XYZ
    dof rx ry rz
    limits (-20.0 45.0)
           (-30.0 30.0)
           (-30.0 30.0)
  end
  begin
     id 14 
     name lowerneck
     direction -0.059386 0.994433 0.0870401   
     length 1.81176   
     axis 0 0 0   XYZ
    dof rx ry rz
    limits (-20.0 45.0)
           (-30.0 30.0)
           (-30.0 30.0)
  end
  begin
     id 15 
     name upperneck
     direction 0.0506457 0.97328 -0.223967   
     length 1.82382   
     axis 0 0 0   XYZ
    dof rx ry rz
    limits (-20.0 45.0)
           (-30.0 30.0)
           (-30.0 30.0)
  end
  begin
     id 16
     name head
     direction 0.0205902 0.996147 -0.0852487  
     length 1.84805  
     axis 0 0 0   XYZ
    dof rx ry rz
    limits (-20.0 45.0)
           (-30.0 30.0)
           (-30.0 30.0)
  end
  begin
     id 17 
     name lclavicle
     direction 0.949493 0.303881 -0.0782325  
     length 3.60584  
     axis 0 0 0   XYZ
    dof ry rz
    limits (-20.0 10.0)
           (0.0 20.0)
  end
  begin
     id 18 
     name lhumerus
     direction 1 -4.48965e-011 1.48782e-027   
     length 4.95681   
     axis 180 -30 -90   XYZ
    dof rx ry rz
    limits (-60.0 90.0)
           (-90.0 90.0)
           (-90.0 90.0)
  end
  begin
     id 19
     name lradius
     direction 1 -4.48952e-011 2.06528e-027   
     length 3.40915   
     axis 180 -30 -90   XYZ
    dof rx
    limits (-10.0 170.0)
  end
  begin
     id 20
     name lwrist
     direction 1 -4.48964e-011 1.28021e-027   
     length 1.70457   
     axis -1.61767e-015 90 90   XYZ
    dof ry
    limits (-180.0 0.0)
 end
  begin
     id 21 
     name lhand
     direction 1 -4.49094e-011 2.54887e-027   
     length 0.616403   
     axis -1.63363e-015 90 90   XYZ
    dof rx rz
    limits (-90.0 90.0)
           (-45.0 45.0)
  end
  begin
     id 22 
     name lfingers
     direction 1 -4.49002e-011 5.11407e-027   
     length 0.49696   
     axis -3.26723e-015 90 90   XYZ
    dof rx
    limits (0.0 90.0)
  end
  begin
     id 23
     name lthumb
     direction 0.707107 -6.34998e-011 0.707107   
     length 0.713539   
     axis -90 45 -2.25915e-014   XYZ
    dof rx rz
    limits (-45.0 45.0)
           (-45.0 45.0)
  end
  begin
     id 24 
     name rclavicle
     direction -0.937751 0.334612 -0.0930482   
     length 3.46287  
     axis 0 0 0   XYZ 
    dof ry rz
    limits (-10.0 20.0)
           (-20.0 0.0)
  end
  begin
     id 25 
     name rhumerus
     direction -1 -4.48962e-011 3.59972e-027  
     length 5.352   
     axis 180 30 90   XYZ
    dof rx ry rz
    limits (-90.0 60.0)
           (-90.0 90.0)
           (-90.0 90.0)
  end
  begin
     id 26 
     name rradius
     direction -1 -4.48987e-011 -3.76925e-027   
     length 3.43721   
     axis 180 30 90   XYZ
    dof rx
    limits (-10.0 170.0)
  end
  begin
     id 27 
     name rwrist
     direction -1 -4.48943e-011 1.28112e-027   
     length 1.7186   
     axis -1.61767e-015 -90 -90   XYZ
    dof ry
    limits (-180.0 0.0)
  end
  begin
     id 28
     name rhand
     direction -1 -4.49027e-011 2.55483e-027   
     length 0.72009   
     axis -1.63363e-015 -90 -90   XYZ
    dof rx rz
    limits (-90.0 90.0)
           (-45.0 45.0)
  end
  begin
     id 29
     name rfingers
     direction -1 -4.48827e-011 5.14506e-027   
     length 0.580555   
     axis -3.26723e-015 -90 -90   XYZ
    dof rx
    limits (0.0 90.0)
  end
  begin
     id 30
     name rthumb
     direction -0.707107 -6.34936e-011 0.707107   
     length 0.833564   
     axis -90 -45 2.25915e-014   XYZ
    dof rx rz
    limits (-45.0 45.0)
           (-45.0 45.0)
  end
:hierarchy
  begin
    root lhipjoint rhipjoint lowerback
    lhipjoint lfemur
    lfemur ltibia
    ltibia lfoot
    lfoot ltoes
    rhipjoint rfemur
    rfemur rtibia
    rtibia rfoot
    rfoot rtoes
    lowerback upperback
    upperback thorax
    thorax lowerneck lclavicle rclavicle
    lowerneck upperneck
    upperneck head
    lclavicle lhumerus
    lhumerus lradius
    lradius lwrist
    lwrist lhand lthumb
    lhand lfingers
    rclavicle rhumerus
    rhumerus rradius
    rradius rwrist
    rwrist rhand rthumb
    rhand rfingers
  end

#!OML:ASF H:\Terrain\Patient Classification 1\Terrain2\Thursday\justin.ASF
:FULLY-SPECIFIED
:DEGREES
399
root 20.4094 20.5747 -12.3695 0.416022 -4.1938 -1.49716
lowerback 6.92503 -0.751379 -1.35319
upperback 3.07672 -1.04655 3.44312
thorax -0.615131 -0.55979 4.39727
lowerneck -12.99 -1.49563 -9.4078
upperneck 35.7511 -0.84243 3.48531
head 14.5747 -1.18684 2.9637
rclavicle 1.88845e-015 1.03368e-014
rhumerus -34.1869 -19.975 -72.5175
rradius 24.3233
rwrist -5.65612
rhand -19.459 13.8736
rfingers 7.12502
rthumb 6.86206 -15.9952
lclavicle 1.88845e-015 1.03368e-014
lhumerus -30.8329 16.391 65.9784
lradius 36.3317
lwrist 12.7096
lhand -22.011 25.6148
lfingers 7.12502
lthumb 4.39817 55.5491
rfemur -18.2442 -7.5254 22.4315
rtibia 41.9666
rfoot -18.1196 -2.67706
rtoes 12.1681
lfemur -3.57231 4.52287 -17.0908
ltibia 23.8275
lfoot -16.2908 -19.9292
ltoes 14.5546
400
root 20.416 20.5648 -12.357 0.461273 -4.41135 -1.46339
lowerback 6.98505 -0.740332 -1.42526
upperback 3.04795 -1.0361 3.4096
thorax -0.678301 -0.553611 4.40406
lowerneck -13.1277 -1.44429 -9.26412
upperneck 35.8582 -0.837584 3.59828
head 14.6521 -1.15406 2.99
rclavicle 2.08724e-014 -2.54444e-014
rhumerus -34.4698 -20.3628 -72.4048
rradius 23.8935
rwrist -5.30962
rhand -19.8685 13.0331
rfingers 7.12502
rthumb 6.46672 -16.8482
lclavicle 2.08724e-014 -2.54444e-014
lhumerus -30.6419 16.2462 66.1689
lradius 36.6478
lwrist 12.7239
lhand -22.7245 24.1621
lfingers 7.12502
lthumb 3.70911 54.1096
rfemur -18.1018 -7.50234 22.5329
rtibia 41.5922
rfoot -18.2447 -3.10186
rtoes 11.9136
lfemur -3.58175 4.4962 -17.1792
ltibia 23.9653
lfoot -16.6149 -19.5903
ltoes 13.7877
401
root 20.4226 20.562 -12.3417 0.489391 -4.62344 -1.57999
lowerback 7.0709 -0.695983 -1.27622
upperback 3.06315 -0.968073 3.37352
thorax -0.719679 -0.517719 4.27828
lowerneck -13.3639 -1.38118 -9.15711
upperneck 35.9678 -0.850589 3.87074
head 14.7546 -1.11124 3.08819
rclavicle -1.59028e-015 -3.18055e-015
rhumerus -34.7555 -20.8832 -72.3249
rradius 23.6293
rwrist -5.06153
rhand -19.831 12.0577
rfingers 7.12502
rthumb 6.50298 -17.8224
lclavicle -1.59028e-015 -3.18055e-015
lhumerus -30.2686 15.8152 66.4817
lradius 36.9595
lwrist 13.2399
lhand -22.7503 23.6093
lfingers 7.12502
lthumb 3.68426 53.5572
rfemur -17.9228 -7.39401 22.7378
rtibia 41.2721
rfoot -18.4589 -3.40365
rtoes 12.6845
lfemur -3.58868 4.77993 -17.0483
ltibia 24.0732
lfoot -16.4401 -19.8496
ltoes 14.8224
402
root 20.4293 20.5627 -12.3236 0.469514 -4.776 -1.67916
lowerback 7.1343 -0.698547 -1.16703
upperback 3.06265 -0.964046 3.38706
thorax -0.757435 -0.514454 4.23136
lowerneck -13.2693 -1.31688 -9.09346
upperneck 35.8482 -0.796912 3.90362
head 14.6694 -1.07251 3.09474
rclavicle 1.0138e-014 3.18055e-015
rhumerus -35.1146 -21.5416 -71.9368
rradius 23.1207
rwrist -4.40123
rhand -19.4689 12.5727
rfingers 7.12502
rthumb 6.85249 -17.2964
lclavicle 1.0138e-014 3.18055e-015
lhumerus -30.188 15.231 66.8292
lradius 37.592
lwrist 13.3426
lhand -21.6907 25.2635
lfingers 7.12502
lthumb 4.70743 55.1912
rfemur -17.6403 -7.09425 22.8695
rtibia 40.9756
rfoot -18.6841 -3.71167
rtoes 14.1824
lfemur -3.53019 5.03805 -16.9347
ltibia 24.1561
lfoot -16.3456 -20.1384
ltoes 15.7038
403
root 20.4352 20.5563 -12.3068 0.37132 -4.8972 -1.57778
lowerback 7.21402 -0.707723 -1.28388
upperback 3.10865 -0.984851 3.37939
thorax -0.750266 -0.526583 4.29243
lowerneck -13.2114 -1.29372 -9.02653
upperneck 35.7305 -0.771075 3.85195
head 14.5974 -1.0566 3.06112
rclavicle 6.75868e-015 -8.74653e-015
rhumerus -35.4123 -22.0952 -71.5645
rradius 22.6255
rwrist -3.91859
rhand -19.3119 12.9908
rfingers 7.12502
rthumb 7.00411 -16.8733
lclavicle 6.75868e-015 -8.74653e-015
lhumerus -30.1605 14.5727 67.2741
lradius 38.1238
lwrist 13.1992
lhand -21.1286 26.0017
lfingers 7.12502
lthumb 5.25016 55.9166
rfemur -17.257 -6.77371 22.7696
rtibia 40.6897
rfoot -18.8654 -3.99117
rtoes 15.2455
lfemur -3.38785 4.97705 -17.0941
ltibia 24.236
lfoot -16.4539 -19.8649
ltoes 15.367
